<svg width="188" height="48" viewBox="0 0 188 48" fill="none" xmlns="http://www.w3.org/2000/svg">
<path d="M5.33414 35.6877V39.4092C5.33414 41.0841 6.11321 41.9217 7.67135 41.9217C9.21693 41.9217 9.98972 41.0841 9.98972 39.4092V38.7291C9.98972 36.9407 8.32477 34.8501 4.99486 32.4573C1.66495 30.077 -3.93061e-06 27.1804 0 23.7675V16.7401C0 11.5514 2.55084 8.95703 7.65251 8.95703C12.7667 8.95703 15.3239 11.5514 15.3239 16.7401V19.0542C15.3239 19.7632 15.0429 20.4431 14.5427 20.9443C14.0425 21.4456 13.3641 21.7273 12.6568 21.7273C11.9494 21.7273 11.2711 21.4456 10.7709 20.9443C10.2707 20.4431 9.98973 19.7632 9.98973 19.0542V16.7401C9.98973 15.0777 9.21694 14.2402 7.67136 14.2276H7.63366C6.10064 14.2276 5.33413 15.0651 5.33414 16.7401V23.6542C5.33414 25.304 6.9991 27.3253 10.329 29.7181C13.6589 32.0984 15.3239 34.9509 15.3239 38.2757V39.4092C15.3239 44.6105 12.773 47.2111 7.67136 47.2111C2.55712 47.1985 5.06585e-06 44.5979 8.99647e-06 39.4092V35.6877L5.33414 35.6877Z" fill="#613393"/>
<path d="M17.4087 41.9217C15.8692 41.9217 15.0995 41.0841 15.0995 39.4092V38.7291C15.0995 36.9407 16.7579 34.8501 20.0746 32.4573C23.3913 30.077 25.0497 27.1804 25.0497 23.7675V16.7401C25.0497 11.5514 22.509 8.95703 17.4275 8.95703C12.3334 8.95703 9.78645 11.5514 9.78645 16.7401V19.1352C9.80099 19.827 10.089 20.4846 10.5871 20.9637C11.0852 21.4427 11.7527 21.704 12.443 21.69C13.1332 21.704 13.8007 21.4428 14.2988 20.9637C14.797 20.4846 15.0849 19.827 15.0995 19.1352V16.7401C15.0995 15.0777 15.8692 14.2402 17.4087 14.2276H17.4462C18.9732 14.2276 19.7367 15.0651 19.7367 16.7401V23.6542C19.7367 25.304 18.0783 27.3253 14.7616 29.7181C11.4448 32.0984 9.78643 34.9509 9.78644 38.2757V39.4092C9.78644 44.6105 12.3272 47.2111 17.4087 47.2111" fill="#51A3DA"/>
<path d="M18.5496 6.4481C20.3262 6.4481 21.7664 5.00464 21.7664 3.22405C21.7664 1.44346 20.3262 0 18.5496 0C16.773 0 15.3328 1.44346 15.3328 3.22405C15.3328 5.00464 16.773 6.4481 18.5496 6.4481Z" fill="#51A3DA"/>
<path d="M7.63375 6.4481C9.41035 6.4481 10.8506 5.00464 10.8506 3.22405C10.8506 1.44346 9.41035 0 7.63375 0C5.85715 0 4.41693 1.44346 4.41693 3.22405C4.41693 5.00464 5.85715 6.4481 7.63375 6.4481Z" fill="#613393"/>
<path d="M46.6201 25.7915C46.5585 25.1698 46.2939 24.6869 45.8263 24.3427C45.3588 23.9985 44.7243 23.8263 43.9229 23.8263C43.3783 23.8263 42.9185 23.9034 42.5434 24.0575C42.1684 24.2065 41.8807 24.4146 41.6803 24.6818C41.4851 24.9489 41.3874 25.252 41.3874 25.5911C41.3772 25.8737 41.4362 26.1203 41.5647 26.3309C41.6983 26.5416 41.8807 26.724 42.1118 26.8781C42.343 27.0271 42.6102 27.1581 42.9133 27.2711C43.2164 27.379 43.5401 27.4715 43.8843 27.5485L45.3023 27.8876C45.9907 28.0418 46.6227 28.2473 47.1981 28.5041C47.7735 28.761 48.2718 29.077 48.6931 29.452C49.1144 29.8271 49.4407 30.2689 49.6718 30.7775C49.9082 31.2862 50.0289 31.8693 50.0341 32.5269C50.0289 33.4928 49.7823 34.3302 49.2942 35.0392C48.8113 35.743 48.1126 36.2902 47.1981 36.6807C46.2887 37.066 45.1918 37.2586 43.9074 37.2586C42.6333 37.2586 41.5236 37.0634 40.5783 36.673C39.6381 36.2825 38.9034 35.7045 38.3742 34.939C37.8502 34.1684 37.5753 33.2153 37.5496 32.0799H40.7786C40.8146 32.6091 40.9662 33.0509 41.2333 33.4054C41.5056 33.7548 41.8678 34.0194 42.3199 34.1992C42.7772 34.3739 43.2935 34.4612 43.8689 34.4612C44.434 34.4612 44.9247 34.379 45.3408 34.2146C45.7621 34.0502 46.0884 33.8216 46.3196 33.5287C46.5507 33.2359 46.6663 32.8994 46.6663 32.5192C46.6663 32.1647 46.561 31.8667 46.3504 31.6252C46.1449 31.3838 45.8418 31.1783 45.441 31.0087C45.0454 30.8392 44.5599 30.6851 43.9845 30.5463L42.266 30.1148C40.9353 29.7911 39.8847 29.2851 39.114 28.5966C38.3434 27.9082 37.9607 26.9808 37.9658 25.8146C37.9607 24.859 38.215 24.0241 38.7287 23.31C39.2476 22.5959 39.9592 22.0385 40.8634 21.6377C41.7676 21.237 42.7951 21.0366 43.946 21.0366C45.1174 21.0366 46.1397 21.237 47.0131 21.6377C47.8917 22.0385 48.575 22.5959 49.063 23.31C49.5511 24.0241 49.8029 24.8513 49.8183 25.7915H46.6201ZM52.2785 37.0352V21.2524H55.6154V28.2113H55.8235L61.5031 21.2524H65.5028L59.6459 28.3192L65.5721 37.0352H61.5802L57.2569 30.5463L55.6154 32.55V37.0352H52.2785ZM70.5775 21.2524V37.0352H67.2406V21.2524H70.5775ZM73.3229 37.0352V21.2524H76.6597V34.284H83.426V37.0352H73.3229ZM85.6358 37.0352V21.2524H88.9727V34.284H95.7389V37.0352H85.6358ZM97.8563 37.0352V34.6308L103.474 29.4289C103.952 28.9665 104.353 28.5504 104.676 28.1805C105.005 27.8106 105.254 27.4484 105.424 27.0939C105.594 26.7342 105.678 26.3463 105.678 25.9302C105.678 25.4678 105.573 25.0696 105.362 24.7357C105.152 24.3966 104.864 24.1372 104.499 23.9574C104.134 23.7724 103.721 23.6799 103.258 23.6799C102.776 23.6799 102.354 23.7775 101.995 23.9728C101.635 24.168 101.358 24.448 101.162 24.8128C100.967 25.1775 100.869 25.6117 100.869 26.1152H97.7021C97.7021 25.0825 97.9359 24.186 98.4034 23.4256C98.8709 22.6652 99.526 22.077 100.369 21.6608C101.211 21.2447 102.182 21.0366 103.282 21.0366C104.412 21.0366 105.396 21.237 106.233 21.6377C107.076 22.0333 107.731 22.583 108.198 23.2869C108.666 23.9907 108.9 24.7974 108.9 25.7067C108.9 26.3027 108.781 26.8909 108.545 27.4715C108.314 28.052 107.9 28.6968 107.304 29.4058C106.708 30.1096 105.868 30.9548 104.784 31.9412L102.48 34.1992V34.3071H109.108V37.0352H97.8563ZM111.618 37.0352V21.2524H117.845C119.037 21.2524 120.054 21.4656 120.897 21.892C121.744 22.3133 122.389 22.9118 122.831 23.6876C123.278 24.4583 123.501 25.3651 123.501 26.408C123.501 27.4561 123.275 28.3577 122.823 29.113C122.371 29.863 121.716 30.4385 120.858 30.8392C120.005 31.2399 118.973 31.4403 117.76 31.4403H113.591V28.7585H117.221C117.858 28.7585 118.387 28.6711 118.808 28.4964C119.229 28.3218 119.543 28.0597 119.748 27.7104C119.959 27.361 120.064 26.9269 120.064 26.408C120.064 25.884 119.959 25.4421 119.748 25.0825C119.543 24.7229 119.227 24.4506 118.8 24.2656C118.379 24.0755 117.847 23.9805 117.205 23.9805H114.955V37.0352H111.618ZM120.141 29.8528L124.064 37.0352H120.38L116.542 29.8528H120.141ZM135.608 21.2524H138.945V31.5019C138.945 32.6528 138.67 33.6597 138.12 34.5229C137.576 35.386 136.813 36.059 135.832 36.5419C134.85 37.0197 133.707 37.2586 132.402 37.2586C131.092 37.2586 129.946 37.0197 128.965 36.5419C127.984 36.059 127.221 35.386 126.676 34.5229C126.132 33.6597 125.859 32.6528 125.859 31.5019V21.2524H129.196V31.2168C129.196 31.8179 129.327 32.3522 129.589 32.8197C129.857 33.2873 130.232 33.6546 130.715 33.9218C131.197 34.1889 131.76 34.3225 132.402 34.3225C133.05 34.3225 133.612 34.1889 134.09 33.9218C134.573 33.6546 134.945 33.2873 135.207 32.8197C135.475 32.3522 135.608 31.8179 135.608 31.2168V21.2524ZM141.69 37.0352V21.2524H147.917C149.109 21.2524 150.126 21.4656 150.969 21.892C151.817 22.3133 152.461 22.9118 152.903 23.6876C153.35 24.4583 153.574 25.3651 153.574 26.408C153.574 27.4561 153.348 28.3577 152.896 29.113C152.443 29.863 151.788 30.4385 150.93 30.8392C150.078 31.2399 149.045 31.4403 147.832 31.4403H143.663V28.7585H147.293C147.93 28.7585 148.459 28.6711 148.881 28.4964C149.302 28.3218 149.615 28.0597 149.821 27.7104C150.031 27.361 150.137 26.9269 150.137 26.408C150.137 25.884 150.031 25.4421 149.821 25.0825C149.615 24.7229 149.299 24.4506 148.873 24.2656C148.452 24.0755 147.92 23.9805 147.278 23.9805H145.027V37.0352H141.69ZM150.214 29.8528L154.136 37.0352H150.453L146.615 29.8528H150.214ZM158.652 37.0352H155.076L160.525 21.2524H164.825L170.266 37.0352H166.69L162.737 24.859H162.613L158.652 37.0352ZM158.429 30.8315H166.875V33.4363H158.429V30.8315ZM172.165 37.0352V21.2524H175.502V34.284H182.269V37.0352H172.165Z" fill="#60269E"/>
</svg>
