<svg width="223" height="56" viewBox="0 0 223 56" fill="none" xmlns="http://www.w3.org/2000/svg">
<path d="M6.32719 42.3321V46.7464C6.32719 48.7332 7.2513 49.7267 9.09953 49.7267C10.9329 49.7267 11.8495 48.7332 11.8495 46.7464V45.9397C11.8495 43.8184 9.8746 41.3386 5.92476 38.5003C1.97492 35.6769 -4.66237e-06 32.2411 0 28.1927V19.857C0 13.7023 3.02573 10.625 9.07718 10.625C15.1435 10.625 18.1767 13.7023 18.1767 19.857V22.602C18.1767 23.4429 17.8434 24.2494 17.2501 24.844C16.6568 25.4386 15.8522 25.7727 15.0131 25.7727C14.1741 25.7727 13.3694 25.4386 12.7761 24.844C12.1828 24.2494 11.8495 23.4429 11.8495 22.602V19.857C11.8495 17.8851 10.9329 16.8917 9.09954 16.8768H9.05482C7.2364 16.8768 6.32719 17.8702 6.32719 19.857V28.0583C6.32719 30.0152 8.30212 32.4129 12.252 35.2512C16.2018 38.0746 18.1767 41.4582 18.1767 45.402V46.7464C18.1767 52.916 15.151 56.0009 9.09954 56.0009C3.03318 55.9859 6.00896e-06 52.9011 1.06713e-05 46.7464V42.3321L6.32719 42.3321Z" fill="white"/>
<path d="M20.6497 49.7267C18.8236 49.7267 17.9106 48.7332 17.9106 46.7464V45.9397C17.9106 43.8184 19.8777 41.3386 23.8119 38.5003C27.7461 35.6769 29.7132 32.2411 29.7132 28.1927V19.857C29.7132 13.7023 26.6995 10.625 20.672 10.625C14.6296 10.625 11.6084 13.7023 11.6084 19.857V22.6981C11.6257 23.5186 11.9672 24.2987 12.5581 24.867C13.149 25.4352 13.9408 25.7451 14.7595 25.7285C15.5782 25.7451 16.37 25.4352 16.9609 24.867C17.5517 24.2987 17.8933 23.5186 17.9106 22.6981V19.857C17.9106 17.8851 18.8236 16.8917 20.6497 16.8768H20.6942C22.5054 16.8768 23.4111 17.8702 23.4111 19.857V28.0583C23.4111 30.0152 21.444 32.4129 17.5097 35.2512C13.5755 38.0746 11.6084 41.4582 11.6084 45.402V46.7464C11.6084 52.916 14.6222 56.0009 20.6497 56.0009" fill="white"/>
<path d="M22.003 7.64854C24.1103 7.64854 25.8186 5.93636 25.8186 3.82427C25.8186 1.71218 24.1103 0 22.003 0C19.8956 0 18.1873 1.71218 18.1873 3.82427C18.1873 5.93636 19.8956 7.64854 22.003 7.64854Z" fill="white"/>
<path d="M9.05495 7.64854C11.1623 7.64854 12.8707 5.93636 12.8707 3.82427C12.8707 1.71218 11.1623 0 9.05495 0C6.9476 0 5.23926 1.71218 5.23926 3.82427C5.23926 5.93636 6.9476 7.64854 9.05495 7.64854Z" fill="white"/>
<path d="M55.2994 30.6826C55.2263 29.9452 54.9124 29.3724 54.3579 28.9641C53.8033 28.5558 53.0507 28.3516 52.1 28.3516C51.454 28.3516 50.9086 28.443 50.4637 28.6259C50.0189 28.8026 49.6776 29.0494 49.4399 29.3663C49.2084 29.6832 49.0926 30.0427 49.0926 30.445C49.0804 30.7801 49.1505 31.0726 49.3028 31.3225C49.4613 31.5724 49.6776 31.7887 49.9518 31.9715C50.2261 32.1482 50.543 32.3036 50.9025 32.4377C51.2621 32.5657 51.646 32.6754 52.0543 32.7668L53.7363 33.169C54.5529 33.3518 55.3024 33.5956 55.985 33.9003C56.6675 34.205 57.2586 34.5798 57.7584 35.0247C58.2581 35.4695 58.6451 35.9936 58.9193 36.5969C59.1996 37.2002 59.3428 37.8919 59.3489 38.672C59.3428 39.8177 59.0503 40.811 58.4714 41.652C57.8985 42.4869 57.0697 43.1359 55.985 43.599C54.9063 44.0561 53.6052 44.2846 52.0817 44.2846C50.5704 44.2846 49.2541 44.053 48.1328 43.5899C47.0175 43.1267 46.1461 42.4412 45.5184 41.5331C44.8968 40.619 44.5708 39.4886 44.5403 38.1418H48.3704C48.4131 38.7695 48.5929 39.2936 48.9097 39.7141C49.2327 40.1285 49.6624 40.4423 50.1986 40.6556C50.741 40.8628 51.3535 40.9664 52.036 40.9664C52.7064 40.9664 53.2883 40.8689 53.782 40.6739C54.2817 40.4789 54.6687 40.2077 54.9429 39.8603C55.2171 39.513 55.3542 39.1138 55.3542 38.6628C55.3542 38.2423 55.2293 37.8889 54.9795 37.6025C54.7357 37.316 54.3761 37.0723 53.9008 36.8712C53.4316 36.6701 52.8557 36.4872 52.1731 36.3227L50.1347 35.8108C48.5563 35.4269 47.31 34.8266 46.3959 34.01C45.4818 33.1934 45.0278 32.0934 45.0339 30.71C45.0278 29.5765 45.3295 28.5863 45.9389 27.7392C46.5544 26.8921 47.3984 26.2309 48.471 25.7555C49.5435 25.2802 50.7623 25.0425 52.1274 25.0425C53.5169 25.0425 54.7296 25.2802 55.7656 25.7555C56.8077 26.2309 57.6182 26.8921 58.1971 27.7392C58.7761 28.5863 59.0747 29.5674 59.093 30.6826H55.2994ZM62.0113 44.0195V25.2985H65.9694V33.5529H66.2162L72.9532 25.2985H77.6975L70.7502 33.6809L77.7797 44.0195H73.0446L67.9164 36.3227L65.9694 38.6994V44.0195H62.0113ZM83.7169 25.2985V44.0195H79.7588V25.2985H83.7169ZM86.9734 44.0195V25.2985H90.9315V40.7561H98.9574V44.0195H86.9734ZM101.579 44.0195V25.2985H105.537V40.7561H113.563V44.0195H101.579ZM116.074 44.0195V41.1675L122.738 34.9972C123.305 34.4488 123.78 33.9551 124.164 33.5164C124.554 33.0776 124.85 32.648 125.051 32.2275C125.252 31.8009 125.352 31.3408 125.352 30.8472C125.352 30.2987 125.228 29.8264 124.978 29.4303C124.728 29.0281 124.387 28.7203 123.954 28.507C123.521 28.2876 123.031 28.178 122.482 28.178C121.909 28.178 121.41 28.2937 120.983 28.5253C120.556 28.7569 120.227 29.089 119.996 29.5217C119.764 29.9544 119.648 30.4693 119.648 31.0665H115.891C115.891 29.8416 116.169 28.7782 116.723 27.8763C117.278 26.9744 118.055 26.2766 119.054 25.783C120.054 25.2894 121.205 25.0425 122.51 25.0425C123.85 25.0425 125.017 25.2802 126.011 25.7555C127.01 26.2248 127.787 26.8769 128.342 27.7118C128.896 28.5466 129.173 29.5034 129.173 30.5821C129.173 31.289 129.033 31.9868 128.753 32.6754C128.479 33.364 127.988 34.1288 127.281 34.9698C126.574 35.8047 125.578 36.8072 124.292 37.9772L121.559 40.6556V40.7836H129.42V44.0195H116.074ZM132.398 44.0195V25.2985H139.784C141.198 25.2985 142.404 25.5514 143.404 26.0572C144.409 26.5569 145.174 27.2669 145.698 28.1871C146.229 29.1012 146.494 30.1768 146.494 31.4139C146.494 32.6571 146.225 33.7266 145.689 34.6224C145.153 35.5122 144.376 36.1947 143.358 36.6701C142.347 37.1454 141.122 37.3831 139.683 37.3831H134.738V34.202H139.044C139.799 34.202 140.427 34.0984 140.927 33.8912C141.426 33.684 141.798 33.3732 142.042 32.9588C142.292 32.5444 142.417 32.0294 142.417 31.4139C142.417 30.7923 142.292 30.2682 142.042 29.8416C141.798 29.415 141.423 29.0921 140.918 28.8727C140.418 28.6472 139.787 28.5345 139.025 28.5345H136.356V44.0195H132.398ZM142.508 35.5L147.161 44.0195H142.791L138.239 35.5H142.508ZM160.854 25.2985H164.812V37.4562C164.812 38.8213 164.486 40.0157 163.834 41.0395C163.188 42.0633 162.283 42.8617 161.119 43.4345C159.955 44.0012 158.6 44.2846 157.052 44.2846C155.498 44.2846 154.139 44.0012 152.975 43.4345C151.811 42.8617 150.906 42.0633 150.26 41.0395C149.614 40.0157 149.291 38.8213 149.291 37.4562V25.2985H153.249V37.118C153.249 37.831 153.404 38.4648 153.715 39.0193C154.032 39.5739 154.477 40.0096 155.05 40.3265C155.623 40.6434 156.29 40.8019 157.052 40.8019C157.819 40.8019 158.487 40.6434 159.054 40.3265C159.626 40.0096 160.068 39.5739 160.379 39.0193C160.696 38.4648 160.854 37.831 160.854 37.118V25.2985ZM168.069 44.0195V25.2985H175.455C176.869 25.2985 178.075 25.5514 179.075 26.0572C180.08 26.5569 180.845 27.2669 181.369 28.1871C181.9 29.1012 182.165 30.1768 182.165 31.4139C182.165 32.6571 181.896 33.7266 181.36 34.6224C180.824 35.5122 180.047 36.1947 179.029 36.6701C178.018 37.1454 176.793 37.3831 175.354 37.3831H170.409V34.202H174.715C175.47 34.202 176.098 34.0984 176.598 33.8912C177.097 33.684 177.469 33.3732 177.713 32.9588C177.963 32.5444 178.088 32.0294 178.088 31.4139C178.088 30.7923 177.963 30.2682 177.713 29.8416C177.469 29.415 177.094 29.0921 176.589 28.8727C176.089 28.6472 175.458 28.5345 174.696 28.5345H172.027V44.0195H168.069ZM178.179 35.5L182.832 44.0195H178.462L173.91 35.5H178.179ZM188.189 44.0195H183.947L190.41 25.2985H195.511L201.964 44.0195H197.723L193.033 29.5765H192.887L188.189 44.0195ZM187.924 36.6609H197.942V39.7506H187.924V36.6609ZM204.218 44.0195V25.2985H208.176V40.7561H216.202V44.0195H204.218Z" fill="white"/>
</svg>
