<svg width="18" height="25" viewBox="0 0 18 25" fill="none" xmlns="http://www.w3.org/2000/svg">
<path d="M10.1667 1.5026C10.1667 0.858272 9.64432 0.335938 8.99999 0.335938C8.35566 0.335938 7.83332 0.858272 7.83332 1.5026V3.2526C7.83332 3.28496 7.83464 3.31701 7.83722 3.3487C4.52464 3.9023 1.99999 6.78147 1.99999 10.2513V14.9193C1.99999 15.5028 1.52153 16.5148 0.997925 17.4475C0.261149 18.76 0.396083 20.3424 1.80271 20.878C3.21743 21.4167 5.48045 21.9193 8.99999 21.9193C12.5195 21.9193 14.7825 21.4167 16.1973 20.878C17.6039 20.3424 17.7388 18.76 17.0021 17.4475C16.4784 16.5148 16 15.5028 16 14.9193V10.2519C16 6.78202 13.4753 3.90241 10.1628 3.34871C10.1653 3.31702 10.1667 3.28497 10.1667 3.2526V1.5026Z" fill="#667185"/>
<path d="M5.40678 22.8813C5.45032 22.9193 5.50291 22.9636 5.56417 23.0126C5.7395 23.1529 5.99001 23.3347 6.3066 23.5156C6.93492 23.8747 7.86393 24.2527 9.00001 24.2527C10.1361 24.2527 11.0651 23.8747 11.6934 23.5156C12.01 23.3347 12.2605 23.1529 12.4358 23.0126C12.4971 22.9636 12.5497 22.9193 12.5932 22.8813C11.5732 23.0083 10.3837 23.086 9.00001 23.086C7.61632 23.086 6.42685 23.0083 5.40678 22.8813Z" fill="#667185"/>
</svg>
