<svg width="40" height="40" viewBox="0 0 40 40" fill="none" xmlns="http://www.w3.org/2000/svg">
<rect width="40" height="40" rx="20" fill="#EBF5FF"/>
<path d="M25.0001 23.1974C26.2134 23.8069 27.2536 24.785 28.0128 26.008C28.1632 26.2502 28.2383 26.3713 28.2643 26.539C28.3172 26.8798 28.0841 27.2988 27.7667 27.4336C27.6105 27.5 27.4348 27.5 27.0834 27.5M23.3334 19.6102C24.5682 18.9966 25.4168 17.7224 25.4168 16.25C25.4168 14.7776 24.5682 13.5034 23.3334 12.8898M21.6668 16.25C21.6668 18.3211 19.9878 20 17.9168 20C15.8457 20 14.1668 18.3211 14.1668 16.25C14.1668 14.1789 15.8457 12.5 17.9168 12.5C19.9878 12.5 21.6668 14.1789 21.6668 16.25ZM12.1328 25.782C13.4614 23.7871 15.5579 22.5 17.9168 22.5C20.2756 22.5 22.3722 23.7871 23.7008 25.782C23.9918 26.219 24.1373 26.4375 24.1206 26.7166C24.1075 26.9339 23.9651 27.2 23.7914 27.3313C23.5684 27.5 23.2616 27.5 22.6481 27.5H13.1854C12.5719 27.5 12.2652 27.5 12.0421 27.3313C11.8685 27.2 11.726 26.9339 11.713 26.7166C11.6962 26.4375 11.8417 26.219 12.1328 25.782Z" stroke="url(#paint0_linear_2102_7455)" stroke-width="2" stroke-linecap="round" stroke-linejoin="round"/>
<defs>
<linearGradient id="paint0_linear_2102_7455" x1="12.1987" y1="20" x2="28.275" y2="20.087" gradientUnits="userSpaceOnUse">
<stop offset="0.0560093" stop-color="#2390FA"/>
<stop offset="0.484711" stop-color="#2C9CF2"/>
<stop offset="1" stop-color="#33A9E7"/>
</linearGradient>
</defs>
</svg>
