<svg width="37" height="37" viewBox="0 0 37 37" fill="none" xmlns="http://www.w3.org/2000/svg">
<rect width="36.5856" height="36.5856" rx="18.2928" fill="#F9F9F9"/>
<path d="M24.2928 12.2928C24.1053 12.1053 23.851 12 23.5858 12C23.3206 12 23.0663 12.1053 22.8788 12.2928L18.2928 16.8788L13.7068 12.2928C13.5193 12.1053 13.265 12 12.9998 12C12.7346 12 12.4803 12.1053 12.2928 12.2928C12.1053 12.4803 12 12.7346 12 12.9998C12 13.265 12.1053 13.5193 12.2928 13.7068L16.8788 18.2928L12.2928 22.8788C12.1053 23.0663 12 23.3206 12 23.5858C12 23.851 12.1053 24.1053 12.2928 24.2928C12.4803 24.4803 12.7346 24.5856 12.9998 24.5856C13.265 24.5856 13.5193 24.4803 13.7068 24.2928L18.2928 19.7068L22.8788 24.2928C23.0663 24.4803 23.3206 24.5856 23.5858 24.5856C23.851 24.5856 24.1053 24.4803 24.2928 24.2928C24.4803 24.1053 24.5856 23.851 24.5856 23.5858C24.5856 23.3206 24.4803 23.0663 24.2928 22.8788L19.7068 18.2928L24.2928 13.7068C24.4803 13.5193 24.5856 13.265 24.5856 12.9998C24.5856 12.7346 24.4803 12.4803 24.2928 12.2928Z" fill="#5F5F5F"/>
</svg>
