<svg width="19" height="18" viewBox="0 0 19 18" fill="none" xmlns="http://www.w3.org/2000/svg">
<rect x="0.25" y="0.25" width="18.5" height="17.5" rx="8.75" stroke="#60269E" stroke-width="0.5"/>
<path d="M8.74999 13.4805H7.16666C5.33749 13.4805 4.52083 12.6638 4.52083 10.8346V9.2513C4.52083 7.42214 5.33749 6.60547 7.16666 6.60547H8.41666C8.58749 6.60547 8.72916 6.74714 8.72916 6.91797C8.72916 7.0888 8.58749 7.23047 8.41666 7.23047H7.16666C5.67499 7.23047 5.14583 7.75964 5.14583 9.2513V10.8346C5.14583 12.3263 5.67499 12.8555 7.16666 12.8555H8.74999C10.2417 12.8555 10.7708 12.3263 10.7708 10.8346V9.58464C10.7708 9.4138 10.9125 9.27214 11.0833 9.27214C11.2542 9.27214 11.3958 9.4138 11.3958 9.58464V10.8346C11.3958 12.6638 10.5792 13.4805 8.74999 13.4805Z" fill="#60269E"/>
<path d="M11.0833 9.89652H9.75001C8.57917 9.89652 8.10417 9.42152 8.10417 8.25069V6.91735C8.10417 6.79235 8.17917 6.67569 8.29584 6.62985C8.41251 6.57985 8.54584 6.60902 8.6375 6.69652L11.3042 9.36319C11.3917 9.45069 11.4208 9.58819 11.3708 9.70485C11.325 9.82152 11.2083 9.89652 11.0833 9.89652ZM8.72917 7.67152V8.25069C8.72917 9.07985 8.92084 9.27152 9.75001 9.27152H10.3292L8.72917 7.67152Z" fill="#60269E"/>
<path d="M10.5 5.14453H8.83333C8.66249 5.14453 8.52083 5.00286 8.52083 4.83203C8.52083 4.6612 8.66249 4.51953 8.83333 4.51953H10.5C10.6708 4.51953 10.8125 4.6612 10.8125 4.83203C10.8125 5.00286 10.6708 5.14453 10.5 5.14453Z" fill="#60269E"/>
<path d="M6.91667 6.39453C6.74584 6.39453 6.60417 6.25286 6.60417 6.08203C6.60417 5.21953 7.30417 4.51953 8.16667 4.51953H9.25834C9.42917 4.51953 9.57084 4.6612 9.57084 4.83203C9.57084 5.00286 9.42917 5.14453 9.25834 5.14453H8.16667C7.65001 5.14453 7.22917 5.56536 7.22917 6.08203C7.22917 6.25286 7.08751 6.39453 6.91667 6.39453Z" fill="#60269E"/>
<path d="M11.9958 11.3945C11.825 11.3945 11.6833 11.2529 11.6833 11.082C11.6833 10.9112 11.825 10.7695 11.9958 10.7695C12.4708 10.7695 12.8542 10.382 12.8542 9.9112V7.33203C12.8542 7.1612 12.9958 7.01953 13.1667 7.01953C13.3375 7.01953 13.4792 7.1612 13.4792 7.33203V9.9112C13.4792 10.7279 12.8125 11.3945 11.9958 11.3945Z" fill="#60269E"/>
<path d="M13.1667 7.64392H11.9167C10.8083 7.64392 10.3542 7.18975 10.3542 6.08142V4.83142C10.3542 4.70642 10.4292 4.58975 10.5458 4.54392C10.6625 4.49392 10.7958 4.52308 10.8875 4.61058L13.3875 7.11058C13.475 7.19808 13.5042 7.33558 13.4542 7.45225C13.4083 7.56892 13.2917 7.64392 13.1667 7.64392ZM10.9792 5.58558V6.08142C10.9792 6.84392 11.1542 7.01892 11.9167 7.01892H12.4125L10.9792 5.58558Z" fill="#60269E"/>
</svg>
