<svg width="20" height="20" viewBox="0 0 20 20" fill="none" xmlns="http://www.w3.org/2000/svg">
<path d="M12.5 18.9596H7.49996C2.97496 18.9596 1.04163 17.0263 1.04163 12.5013V7.5013C1.04163 2.9763 2.97496 1.04297 7.49996 1.04297H9.16663C9.50829 1.04297 9.79163 1.3263 9.79163 1.66797C9.79163 2.00964 9.50829 2.29297 9.16663 2.29297H7.49996C3.65829 2.29297 2.29163 3.65964 2.29163 7.5013V12.5013C2.29163 16.343 3.65829 17.7096 7.49996 17.7096H12.5C16.3416 17.7096 17.7083 16.343 17.7083 12.5013V10.8346C17.7083 10.493 17.9916 10.2096 18.3333 10.2096C18.675 10.2096 18.9583 10.493 18.9583 10.8346V12.5013C18.9583 17.0263 17.025 18.9596 12.5 18.9596Z" fill="#667085"/>
<path d="M7.08336 14.7424C6.57503 14.7424 6.10836 14.5591 5.76669 14.2258C5.35836 13.8174 5.18336 13.2258 5.27503 12.6008L5.63336 10.0924C5.70003 9.60911 6.01669 8.98411 6.35836 8.64245L12.925 2.07578C14.5834 0.417448 16.2667 0.417448 17.925 2.07578C18.8334 2.98411 19.2417 3.90911 19.1584 4.83411C19.0834 5.58411 18.6834 6.31745 17.925 7.06745L11.3584 13.6341C11.0167 13.9758 10.3917 14.2924 9.90836 14.3591L7.40003 14.7174C7.29169 14.7424 7.18336 14.7424 7.08336 14.7424ZM13.8084 2.95911L7.24169 9.52578C7.08336 9.68411 6.90003 10.0508 6.86669 10.2674L6.50836 12.7758C6.47503 13.0174 6.52503 13.2174 6.65003 13.3424C6.77503 13.4674 6.97503 13.5174 7.21669 13.4841L9.72503 13.1258C9.94169 13.0924 10.3167 12.9091 10.4667 12.7508L17.0334 6.18411C17.575 5.64245 17.8584 5.15911 17.9 4.70911C17.95 4.16745 17.6667 3.59245 17.0334 2.95078C15.7 1.61745 14.7834 1.99245 13.8084 2.95911Z" fill="#667085"/>
<path d="M16.5417 8.19319C16.4833 8.19319 16.425 8.18486 16.375 8.16819C14.1833 7.55153 12.4417 5.80986 11.825 3.61819C11.7333 3.28486 11.925 2.94319 12.2583 2.84319C12.5917 2.75153 12.9333 2.94319 13.025 3.27653C13.525 5.05153 14.9333 6.45986 16.7083 6.95986C17.0417 7.05153 17.2333 7.40153 17.1417 7.73486C17.0667 8.01819 16.8167 8.19319 16.5417 8.19319Z" fill="#667085"/>
</svg>
