<svg width="41" height="40" viewBox="0 0 41 40" fill="none" xmlns="http://www.w3.org/2000/svg">
<rect x="0.333374" width="40" height="40" rx="20" fill="#EBFFF5"/>
<path d="M25.3334 23.1974C26.5466 23.8069 27.5868 24.785 28.3461 26.008C28.4964 26.2502 28.5716 26.3713 28.5976 26.539C28.6504 26.8798 28.4174 27.2988 28.1 27.4336C27.9438 27.5 27.7681 27.5 27.4167 27.5M23.6667 19.6102C24.9015 18.9966 25.75 17.7224 25.75 16.25C25.75 14.7776 24.9015 13.5034 23.6667 12.8898M22 16.25C22 18.3211 20.3211 20 18.25 20C16.179 20 14.5 18.3211 14.5 16.25C14.5 14.1789 16.179 12.5 18.25 12.5C20.3211 12.5 22 14.1789 22 16.25ZM12.4661 25.782C13.7946 23.7871 15.8912 22.5 18.25 22.5C20.6089 22.5 22.7054 23.7871 24.034 25.782C24.3251 26.219 24.4706 26.4375 24.4538 26.7166C24.4408 26.9339 24.2983 27.2 24.1247 27.3313C23.9016 27.5 23.5949 27.5 22.9814 27.5H13.5187C12.9052 27.5 12.5984 27.5 12.3754 27.3313C12.2017 27.2 12.0593 26.9339 12.0462 26.7166C12.0295 26.4375 12.175 26.219 12.4661 25.782Z" stroke="#00AB55" stroke-linecap="round" stroke-linejoin="round"/>
</svg>
