<svg width="26" height="26" viewBox="0 0 26 26" fill="none" xmlns="http://www.w3.org/2000/svg">
<path fill-rule="evenodd" clip-rule="evenodd" d="M25.6385 7.46809V18.6533C25.6385 22.7976 23.0449 25.7205 18.9007 25.7205H7.03069C2.88648 25.7205 0.306641 22.7976 0.306641 18.6533V7.46809C0.306641 3.32388 2.9002 0.402344 7.03069 0.402344H18.9007C23.0449 0.402344 25.6385 3.32388 25.6385 7.46809Z" stroke="#2390FA" stroke-width="0.386023" stroke-linecap="round" stroke-linejoin="round"/>
<path d="M3.78024 19.1736L5.87705 16.9602C6.60572 16.1876 7.82016 16.1505 8.59411 16.8778C8.61744 16.9011 9.87992 18.1842 9.87992 18.1842C10.6415 18.9595 11.8862 18.9719 12.6615 18.2117C12.7123 18.1623 15.8643 14.3391 15.8643 14.3391C16.6767 13.3525 18.1354 13.2112 19.1234 14.0249C19.1893 14.0798 22.1671 17.1358 22.1671 17.1358" stroke="#2390FA" stroke-width="0.386023" stroke-linecap="round" stroke-linejoin="round"/>
<path fill-rule="evenodd" clip-rule="evenodd" d="M10.6845 9.16084C10.6845 10.4906 9.60726 11.5678 8.27754 11.5678C6.94783 11.5678 5.87061 10.4906 5.87061 9.16084C5.87061 7.83113 6.94783 6.75391 8.27754 6.75391C9.60726 6.75528 10.6845 7.83113 10.6845 9.16084Z" stroke="#2390FA" stroke-width="0.386023" stroke-linecap="round" stroke-linejoin="round"/>
</svg>
