<svg width="20" height="21" viewBox="0 0 20 21" fill="none" xmlns="http://www.w3.org/2000/svg">
<path fill-rule="evenodd" clip-rule="evenodd" d="M2.49992 6.33333C2.49992 5.41286 3.24611 4.66667 4.16658 4.66667H13.3333C13.7935 4.66667 14.1666 4.29357 14.1666 3.83333C14.1666 3.3731 13.7935 3 13.3333 3H4.16658C2.32564 3 0.833252 4.49238 0.833252 6.33333V15.5C0.833252 17.341 2.32564 18.8333 4.16658 18.8333H15.8333C17.6742 18.8333 19.1666 17.341 19.1666 15.5V8.83333C19.1666 8.3731 18.7935 8 18.3333 8C17.873 8 17.4999 8.3731 17.4999 8.83333V12.7077L14.4531 8.89918C13.0438 7.13752 10.3281 7.25537 9.07672 9.13249L8.12703 10.557C6.99166 9.93387 5.55926 10.2819 4.83952 11.3714L2.49992 14.913V6.33333ZM13.1517 9.94033L17.4999 15.3757V15.5C17.4999 16.4205 16.7537 17.1667 15.8333 17.1667H7.28078C6.6152 17.1667 6.21821 16.4249 6.58741 15.8711L10.4635 10.057C11.0892 9.11843 12.447 9.05951 13.1517 9.94033ZM5.20065 14.9466C4.72759 15.6562 4.67384 16.4686 4.92308 17.1667H4.58325C4.12301 17.1667 3.74992 16.7936 3.74992 16.3333V16.2949C3.74992 16.1316 3.79791 15.9719 3.88794 15.8356L6.23015 12.29C6.44246 11.9686 6.84082 11.8408 7.19195 11.9596L5.20065 14.9466Z" fill="#60269E"/>
<path d="M4.31909 7.8319C4.71999 7.96553 5.03458 8.28012 5.16821 8.68102C5.30421 9.08903 5.88133 9.08903 6.01733 8.68102C6.15097 8.28012 6.46556 7.96553 6.86646 7.8319C7.27447 7.69589 7.27447 7.11878 6.86646 6.98277C6.46556 6.84914 6.15097 6.53455 6.01733 6.13365C5.88133 5.72564 5.30421 5.72564 5.16821 6.13365C5.03458 6.53455 4.71999 6.84914 4.31909 6.98277C3.91108 7.11878 3.91108 7.69589 4.31909 7.8319Z" fill="#60269E"/>
<path d="M17.4999 3.83333C17.4999 3.3731 17.1268 3 16.6666 3C16.2063 3 15.8333 3.3731 15.8333 3.83333V4.66667H14.9999C14.5397 4.66667 14.1666 5.03976 14.1666 5.5C14.1666 5.96024 14.5397 6.33333 14.9999 6.33333H15.8333V7.16667C15.8333 7.6269 16.2063 8 16.6666 8C17.1268 8 17.4999 7.6269 17.4999 7.16667V6.33333H18.3333C18.7935 6.33333 19.1666 5.96024 19.1666 5.5C19.1666 5.03976 18.7935 4.66667 18.3333 4.66667H17.4999V3.83333Z" fill="#60269E"/>
</svg>
