<svg width="41" height="40" viewBox="0 0 41 40" fill="none" xmlns="http://www.w3.org/2000/svg">
<rect x="0.666626" width="40" height="40" rx="20" fill="#FEEFEC"/>
<path d="M25.6666 23.1974C26.8799 23.8069 27.9201 24.785 28.6793 26.008C28.8297 26.2502 28.9048 26.3713 28.9308 26.539C28.9837 26.8798 28.7506 27.2988 28.4332 27.4336C28.277 27.5 28.1013 27.5 27.7499 27.5M23.9999 19.6102C25.2347 18.9966 26.0833 17.7224 26.0833 16.25C26.0833 14.7776 25.2347 13.5034 23.9999 12.8898M22.3333 16.25C22.3333 18.3211 20.6543 20 18.5833 20C16.5122 20 14.8333 18.3211 14.8333 16.25C14.8333 14.1789 16.5122 12.5 18.5833 12.5C20.6543 12.5 22.3333 14.1789 22.3333 16.25ZM12.7993 25.782C14.1279 23.7871 16.2244 22.5 18.5833 22.5C20.9421 22.5 23.0387 23.7871 24.3673 25.782C24.6583 26.219 24.8038 26.4375 24.7871 26.7166C24.774 26.9339 24.6316 27.2 24.4579 27.3313C24.2349 27.5 23.9281 27.5 23.3146 27.5H13.8519C13.2384 27.5 12.9317 27.5 12.7086 27.3313C12.535 27.2 12.3925 26.9339 12.3795 26.7166C12.3627 26.4375 12.5082 26.219 12.7993 25.782Z" stroke="#F36643" stroke-linecap="round" stroke-linejoin="round"/>
</svg>
