<svg width="121" height="78" viewBox="0 0 121 78" fill="none" xmlns="http://www.w3.org/2000/svg">
<rect x="0.195351" y="0.195351" width="120.609" height="77.6093" rx="2.93027" fill="#F9F9F9"/>
<rect x="0.195351" y="0.195351" width="120.609" height="77.6093" rx="2.93027" stroke="#C4C4C4" stroke-width="0.390702"/>
<path fill-rule="evenodd" clip-rule="evenodd" d="M72.9762 34.041V45.1872C72.9762 49.3169 70.3917 52.2296 66.262 52.2296H54.4335C50.3037 52.2296 47.7329 49.3169 47.7329 45.1872V34.041C47.7329 29.9113 50.3174 27 54.4335 27H66.262C70.3917 27 72.9762 29.9113 72.9762 34.041Z" stroke="#2390FA" stroke-width="0.586053" stroke-linecap="round" stroke-linejoin="round"/>
<path d="M51.1943 45.7084L53.2838 43.5027C54.0099 42.7329 55.2201 42.6959 55.9914 43.4207C56.0146 43.4439 57.2727 44.7225 57.2727 44.7225C58.0316 45.4951 59.2719 45.5074 60.0445 44.7499C60.0951 44.7006 63.2362 40.8909 63.2362 40.8909C64.0457 39.9077 65.4993 39.7668 66.4839 40.5777C66.5495 40.6324 69.5169 43.6778 69.5169 43.6778" stroke="#2390FA" stroke-width="0.586053" stroke-linecap="round" stroke-linejoin="round"/>
<path fill-rule="evenodd" clip-rule="evenodd" d="M58.0744 35.7306C58.0744 37.0556 57.0009 38.1291 55.6759 38.1291C54.3508 38.1291 53.2773 37.0556 53.2773 35.7306C53.2773 34.4055 54.3508 33.332 55.6759 33.332C57.0009 33.3334 58.0744 34.4055 58.0744 35.7306Z" stroke="#2390FA" stroke-width="0.586053" stroke-linecap="round" stroke-linejoin="round"/>
</svg>
