<svg width="48" height="48" viewBox="0 0 48 48" fill="none" xmlns="http://www.w3.org/2000/svg">
<path d="M15.74 42.561C14.16 42.561 12.66 42.181 11.34 41.421C8.22 39.621 6.5 35.961 6.5 31.141V16.881C6.5 12.041 8.22 8.40095 11.34 6.60095C14.46 4.80095 18.48 5.14095 22.68 7.56095L35.02 14.681C39.2 17.101 41.52 20.421 41.52 24.021C41.52 27.621 39.22 30.941 35.02 33.361L22.68 40.481C20.26 41.861 17.9 42.561 15.74 42.561ZM15.74 8.44095C14.66 8.44095 13.7 8.68095 12.84 9.18095C10.68 10.421 9.5 13.161 9.5 16.881V31.121C9.5 34.841 10.68 37.561 12.84 38.821C15 40.081 17.96 39.721 21.18 37.861L33.52 30.741C36.74 28.881 38.52 26.501 38.52 24.001C38.52 21.501 36.74 19.121 33.52 17.261L21.18 10.141C19.22 9.02096 17.38 8.44095 15.74 8.44095Z" fill="white"/>
</svg>
