<svg width="24" height="24" viewBox="0 0 24 24" fill="none" xmlns="http://www.w3.org/2000/svg">
<path d="M11.9999 22.81C11.3099 22.81 10.6599 22.46 10.1999 21.85L8.69994 19.85C8.66994 19.81 8.54994 19.76 8.49994 19.75H7.99994C3.82994 19.75 1.24994 18.62 1.24994 13V8C1.24994 3.58 3.57994 1.25 7.99994 1.25H15.9999C20.4199 1.25 22.7499 3.58 22.7499 8V13C22.7499 17.42 20.4199 19.75 15.9999 19.75H15.4999C15.4199 19.75 15.3499 19.79 15.2999 19.85L13.7999 21.85C13.3399 22.46 12.6899 22.81 11.9999 22.81ZM7.99994 2.75C4.41994 2.75 2.74994 4.42 2.74994 8V13C2.74994 17.52 4.29994 18.25 7.99994 18.25H8.49994C9.00994 18.25 9.58994 18.54 9.89994 18.95L11.3999 20.95C11.7499 21.41 12.2499 21.41 12.5999 20.95L14.0999 18.95C14.4299 18.51 14.9499 18.25 15.4999 18.25H15.9999C19.5799 18.25 21.2499 16.58 21.2499 13V8C21.2499 4.42 19.5799 2.75 15.9999 2.75H7.99994Z" fill="#60269E"/>
<path d="M11.9999 12C11.4399 12 10.9999 11.55 10.9999 11C10.9999 10.45 11.4499 10 11.9999 10C12.5499 10 12.9999 10.45 12.9999 11C12.9999 11.55 12.5599 12 11.9999 12Z" fill="#60269E"/>
<path d="M15.9999 12C15.4399 12 14.9999 11.55 14.9999 11C14.9999 10.45 15.4499 10 15.9999 10C16.5499 10 16.9999 10.45 16.9999 11C16.9999 11.55 16.5599 12 15.9999 12Z" fill="#60269E"/>
<path d="M7.99994 12C7.43994 12 6.99994 11.55 6.99994 11C6.99994 10.45 7.44994 10 7.99994 10C8.54994 10 8.99994 10.45 8.99994 11C8.99994 11.55 8.55994 12 7.99994 12Z" fill="#60269E"/>
</svg>
