<svg width="32" height="48" viewBox="0 0 32 48" fill="none" xmlns="http://www.w3.org/2000/svg">
<path d="M6.32719 36.2838V40.0675C6.32719 41.7705 7.2513 42.622 9.09953 42.622C10.9329 42.622 11.8495 41.7705 11.8495 40.0675V39.3761C11.8495 37.5578 9.8746 35.4323 5.92476 32.9995C1.97492 30.5794 -4.66237e-06 27.6344 0 24.1644V17.0195C0 11.744 3.02573 9.10632 9.07718 9.10632C15.1435 9.10632 18.1767 11.744 18.1767 17.0195V19.3723C18.1767 20.0931 17.8434 20.7844 17.2501 21.294C16.6568 21.8037 15.8522 22.0901 15.0131 22.0901C14.1741 22.0901 13.3694 21.8037 12.7761 21.294C12.1828 20.7844 11.8495 20.0931 11.8495 19.3723V17.0195C11.8495 15.3293 10.9329 14.4778 9.09954 14.465H9.05482C7.2364 14.465 6.32719 15.3165 6.32719 17.0195V24.0491C6.32719 25.7265 8.30212 27.7816 12.252 30.2145C16.2018 32.6345 18.1767 35.5348 18.1767 38.9151V40.0675C18.1767 45.3558 15.151 47.9999 9.09954 47.9999C3.03318 47.9871 6.00896e-06 45.343 1.06713e-05 40.0675V36.2838L6.32719 36.2838Z" fill="#613393"/>
<path d="M20.6497 42.622C18.8237 42.622 17.9106 41.7705 17.9106 40.0675V39.3761C17.9106 37.5578 19.8778 35.4323 23.812 32.9995C27.7462 30.5794 29.7133 27.6344 29.7133 24.1644V17.0195C29.7133 11.744 26.6995 9.10632 20.672 9.10632C14.6296 9.10632 11.6085 11.744 11.6085 17.0195V19.4547C11.6257 20.158 11.9673 20.8266 12.5582 21.3137C13.149 21.8008 13.9408 22.0664 14.7596 22.0522C15.5783 22.0664 16.3701 21.8008 16.9609 21.3137C17.5518 20.8266 17.8934 20.158 17.9106 19.4547V17.0195C17.9106 15.3293 18.8237 14.4778 20.6497 14.465H20.6943C22.5055 14.465 23.4111 15.3165 23.4111 17.0195V24.0491C23.4111 25.7265 21.444 27.7816 17.5098 30.2145C13.5756 32.6345 11.6085 35.5348 11.6085 38.9151V40.0675C11.6085 45.3558 14.6222 47.9999 20.6497 47.9999" fill="#51A3DA"/>
<path d="M22.003 6.55589C24.1103 6.55589 25.8186 5.08831 25.8186 3.27795C25.8186 1.46759 24.1103 0 22.003 0C19.8956 0 18.1873 1.46759 18.1873 3.27795C18.1873 5.08831 19.8956 6.55589 22.003 6.55589Z" fill="#51A3DA"/>
<path d="M9.05495 6.55589C11.1623 6.55589 12.8707 5.08831 12.8707 3.27795C12.8707 1.46759 11.1623 0 9.05495 0C6.9476 0 5.23926 1.46759 5.23926 3.27795C5.23926 5.08831 6.9476 6.55589 9.05495 6.55589Z" fill="#613393"/>
</svg>
